<?xml version="1.0" standalone="no"?>
<!DOCTYPE svg PUBLIC "-//W3C//DTD SVG 20010904//EN"
 "http://www.w3.org/TR/2001/REC-SVG-20010904/DTD/svg10.dtd">
<svg version="1.0" xmlns="http://www.w3.org/2000/svg"
 width="400.000000pt" height="400.000000pt" viewBox="0 0 400.000000 400.000000"
 preserveAspectRatio="xMidYMid meet">
<metadata>
Created by potrace 1.14, written by Peter Selinger 2001-2017
</metadata>
<g transform="translate(0.000000,400.000000) scale(0.100000,-0.100000)"
fill="#000000" stroke="none">
<path d="M0 3190 c0 -563 3 -810 11 -810 5 0 8 4 5 8 -3 5 11 9 32 9 l37 1
-43 -15 -42 -15 0 -68 c0 -53 4 -71 16 -78 15 -8 15 -10 0 -15 -15 -6 -17 -25
-15 -151 0 -99 4 -146 12 -150 9 -3 8 -5 0 -5 -7 -1 -13 -8 -13 -16 0 -19 4
-19 41 1 17 8 33 13 36 10 3 -2 -14 -14 -36 -26 l-42 -21 1 -184 c1 -102 5
-185 9 -185 4 0 16 7 27 15 10 8 28 14 39 14 11 0 14 -3 7 -6 -6 -2 -10 -9 -6
-14 3 -5 2 -8 -3 -7 -4 1 -23 -6 -40 -15 l-33 -18 0 -160 c0 -88 4 -158 8
-155 4 2 14 1 22 -5 12 -7 10 -9 -8 -9 l-22 0 0 -560 1 -561 472 3 472 3 25
23 c13 12 30 22 37 22 7 0 13 4 13 8 0 5 10 14 23 20 12 6 40 23 62 36 22 14
69 40 105 57 36 18 67 35 70 38 10 12 59 41 71 41 6 0 28 13 48 29 21 17 50
35 67 42 16 7 40 21 53 31 13 10 32 18 42 18 11 0 19 4 19 10 0 5 17 16 37 26
21 9 54 24 73 34 19 9 52 18 73 18 21 1 44 5 52 9 20 11 187 -8 182 -21 -3 -7
13 -12 36 -13 22 -2 64 -14 95 -28 30 -14 65 -25 78 -25 12 0 25 -4 29 -9 3
-6 7 -52 9 -104 3 -100 3 -102 -50 -133 -10 -7 -18 -19 -18 -28 1 -9 -2 -16
-7 -16 -5 0 -9 -4 -9 -10 0 -16 27 -12 34 5 3 8 12 12 21 9 8 -3 15 -2 15 4 0
5 14 12 31 16 17 3 28 10 24 16 -3 6 4 10 17 10 26 0 63 36 48 45 -6 4 -10 13
-10 21 0 10 7 13 25 8 21 -5 24 -3 19 12 -4 11 -14 25 -22 32 -14 11 -14 12 2
12 9 0 14 4 11 10 -3 5 1 10 10 10 9 0 22 13 28 30 8 22 16 28 29 24 12 -4 18
0 18 11 0 10 5 13 12 9 8 -5 9 4 4 35 -5 33 -4 41 6 35 7 -4 4 2 -6 14 -12 14
-15 22 -6 22 7 0 10 7 6 15 -3 9 0 15 9 15 9 0 12 6 8 17 -4 10 -2 14 4 10 6
-4 16 0 23 8 6 7 17 12 24 9 7 -3 13 2 13 10 0 8 -5 12 -11 9 -22 -13 1 7 38
32 30 20 41 23 52 14 16 -13 30 -6 19 10 -3 6 -23 11 -43 12 -33 1 -30 2 23
14 112 25 171 13 100 -21 -38 -18 -46 -33 -17 -33 32 1 93 -8 99 -15 3 -3 19
-6 35 -6 15 0 28 -4 28 -9 0 -15 32 -22 47 -10 11 10 11 14 2 20 -24 14 10 39
55 40 35 0 37 2 19 9 -25 10 -29 20 -12 37 8 8 7 13 -2 18 -7 5 -19 -1 -29
-16 -15 -18 -21 -21 -32 -11 -8 6 -25 9 -39 7 -32 -7 -99 4 -99 16 0 5 18 6
40 3 25 -4 40 -3 40 4 0 12 53 11 62 -2 4 -6 18 2 34 17 20 20 23 27 11 27
-15 0 -45 38 -32 41 3 1 9 2 14 3 30 4 37 46 8 43 -14 -1 -22 4 -22 13 0 16
-58 35 -63 20 -2 -4 -41 11 -87 35 -111 58 -152 69 -207 54 -24 -6 -60 -11
-80 -10 -21 1 -38 -3 -38 -9 0 -6 -12 -9 -27 -8 -18 2 -27 -2 -26 -9 2 -6 -5
-12 -15 -11 -9 0 -46 -7 -82 -15 -56 -12 -61 -15 -35 -20 20 -3 13 -4 -18 -4
-32 1 -52 -4 -58 -14 -6 -10 -9 -11 -9 -1 0 8 -9 12 -22 10 -17 -2 -24 3 -26
19 -2 15 -13 25 -28 29 -31 8 -30 13 6 48 29 27 30 29 13 42 -17 13 -17 13 1
14 15 0 16 3 6 15 -10 12 -9 15 8 15 11 0 23 7 26 16 4 11 2 15 -7 11 -8 -3
-14 1 -14 9 0 8 4 14 9 14 5 0 6 5 2 12 -5 7 -2 9 8 5 9 -3 20 -1 26 5 16 16
-28 76 -58 80 -14 2 -24 8 -23 13 0 6 -10 18 -24 29 -25 18 -25 18 -19 0 7
-22 -9 -52 -21 -40 -4 5 -2 11 4 13 18 7 16 23 -3 23 -11 0 -14 5 -10 17 4 10
-2 25 -15 39 -12 13 -18 28 -13 35 5 9 1 11 -14 7 -26 -7 -29 7 -5 22 17 10
17 10 -1 8 -11 -2 -20 4 -21 15 -2 9 2 17 8 17 8 0 8 3 -1 12 -9 9 -7 14 6 24
12 9 13 13 4 14 -15 0 -6 40 11 52 7 4 7 11 -2 21 -9 12 -9 16 1 20 10 4 10 6
0 6 -10 1 -9 6 4 18 20 20 4 29 -25 14 -11 -6 -29 -11 -39 -11 -16 0 -22 -9
-27 -41 -4 -23 -10 -37 -14 -32 -3 5 -14 12 -23 16 -10 3 -18 13 -18 21 0 7
-7 17 -16 20 -14 5 -15 4 -4 -9 10 -12 10 -21 1 -43 -11 -24 -14 -25 -23 -9
-7 14 -13 15 -23 7 -9 -8 -15 -8 -20 0 -9 15 -35 12 -35 -5 0 -22 -7 -19 -44
18 -36 35 -86 48 -86 22 0 -12 -4 -11 -20 5 -20 20 -56 28 -45 10 3 -5 3 -10
-2 -10 -19 1 -34 19 -39 46 -3 16 -11 34 -18 39 -7 6 -10 20 -6 35 4 14 3 36
-2 49 -5 13 -6 32 -3 41 4 14 -1 19 -26 22 -18 3 -36 -1 -44 -9 -7 -7 -24 -17
-38 -22 -22 -8 -31 -3 -81 50 -31 32 -56 61 -56 64 1 4 -14 18 -32 33 -48 40
-228 218 -228 227 0 4 10 15 23 26 l22 18 -23 1 c-12 0 -25 7 -28 15 -8 19
-34 19 -34 0 0 -8 -7 -15 -15 -15 -8 0 -14 6 -13 13 2 7 -10 13 -29 15 -27 3
-33 8 -33 27 0 32 16 40 43 22 22 -14 137 -22 137 -9 0 4 -11 20 -25 36 -24
28 -29 40 -26 60 1 5 -3 12 -9 16 -8 5 -7 12 4 23 9 8 16 20 16 25 0 9 59 42
74 42 3 0 6 -9 6 -20 0 -11 7 -23 15 -26 8 -4 15 -12 15 -20 0 -8 7 -14 15
-14 18 0 20 16 3 23 -8 3 -7 6 4 6 20 1 32 17 23 31 -5 8 -12 7 -23 -2 -13
-11 -15 -11 -10 3 4 9 -2 23 -13 33 -11 9 -22 30 -26 46 -12 61 -26 44 -26
-31 0 -15 -5 -15 -52 -4 -29 6 -65 22 -80 33 -35 28 -38 28 -53 -8 -15 -32
-10 -45 25 -73 24 -19 31 -46 13 -48 -5 -1 -16 -2 -22 -3 -7 0 -13 -9 -13 -20
0 -29 -29 -43 -49 -23 -9 8 -16 20 -16 26 0 6 -4 11 -10 11 -5 0 -10 -7 -10
-15 0 -8 -4 -15 -10 -15 -5 0 -10 8 -10 19 0 14 -10 20 -41 24 -38 5 -89 39
-89 59 0 5 10 7 23 3 20 -5 20 -5 -3 9 l-25 15 28 1 c16 0 26 4 22 10 -3 6
-14 10 -24 10 -19 0 -103 39 -86 40 6 0 -17 14 -49 30 -58 30 -116 40 -116 20
0 -5 -17 -10 -37 -10 -21 0 -50 -6 -64 -14 -30 -15 -53 -7 -44 16 4 10 -1 17
-16 21 -13 4 -20 9 -17 13 4 3 -5 17 -20 31 -18 16 -27 36 -28 56 0 18 -4 40
-9 50 -5 13 -2 17 15 17 14 0 19 4 13 13 -4 6 -8 22 -8 34 -1 20 1 21 15 8 9
-8 22 -15 29 -15 6 0 14 -6 17 -13 4 -11 47 -15 97 -8 4 1 7 9 7 19 0 18 47
42 86 42 10 0 28 7 38 15 11 8 25 15 30 15 6 0 4 -5 -4 -11 -11 -7 -5 -9 23
-6 20 3 44 10 52 17 8 6 24 9 37 6 13 -3 17 -3 10 0 -17 8 -5 25 13 18 10 -4
13 1 9 20 -5 29 10 35 24 9 8 -14 11 -13 17 7 l7 23 14 -24 c12 -24 13 -23 20
18 3 23 15 50 25 59 18 16 19 16 20 -7 0 -22 1 -23 9 -4 5 11 9 16 9 11 1 -5
8 -3 16 4 13 11 14 10 9 -4 -12 -31 27 -17 67 24 31 31 44 38 57 31 9 -4 22
-6 29 -4 12 5 37 -61 30 -80 -2 -7 1 -17 8 -24 10 -9 14 -7 20 10 6 19 8 20
12 4 2 -9 9 -15 14 -12 5 4 9 -2 9 -12 0 -13 3 -14 8 -5 6 9 14 2 27 -22 15
-27 22 -33 32 -24 10 8 13 5 13 -12 0 -18 3 -20 14 -11 11 9 15 8 20 -4 3 -9
10 -14 15 -11 5 3 16 -5 25 -18 12 -19 12 -26 3 -30 -6 -3 0 -3 16 1 21 4 26
2 22 -10 -4 -8 1 -17 12 -21 15 -6 15 -8 3 -16 -11 -7 -12 -10 -2 -10 7 0 10
-4 7 -10 -3 -5 -2 -10 4 -10 6 0 8 -7 5 -15 -8 -19 55 -47 111 -49 23 -1 46
-6 53 -10 14 -9 45 12 37 24 -13 21 15 17 40 -4 24 -21 35 -24 84 -19 60 6
115 16 144 28 15 6 16 4 7 -20 -13 -35 -14 -34 15 -30 28 3 32 -8 12 -27 -8
-7 -12 -21 -9 -31 3 -11 -1 -23 -9 -27 -9 -6 -6 -10 13 -15 15 -4 31 -4 37 -1
10 7 8 -34 -3 -52 -4 -7 -1 -12 8 -12 9 0 16 -7 16 -16 0 -9 5 -12 12 -8 8 5
9 -2 5 -24 -5 -24 -3 -32 8 -32 8 0 15 8 15 18 0 9 4 13 8 7 18 -24 101 2 86
27 -3 4 1 11 10 14 9 3 12 12 9 22 -5 12 -2 14 11 9 14 -6 34 9 82 60 35 36
64 70 64 75 0 4 7 8 15 8 8 0 15 4 15 9 0 5 9 13 20 16 11 4 18 10 15 15 -3 4
3 11 12 14 12 5 14 9 5 18 -15 15 -16 32 -2 23 6 -3 10 0 10 8 0 7 9 23 21 35
11 12 17 26 14 32 -3 5 14 15 37 21 24 7 48 16 54 21 6 5 18 6 26 3 8 -3 31 1
51 10 20 8 37 11 37 6 0 -5 10 -7 23 -4 13 3 17 1 10 -4 -6 -5 15 -9 52 -11
36 -1 66 2 70 8 4 6 11 7 17 4 6 -4 5 -10 -3 -15 -10 -6 -6 -9 13 -9 15 0 30
5 34 11 3 6 14 9 24 6 9 -2 25 0 35 6 14 7 16 7 10 -3 -6 -10 -4 -12 8 -7 10
3 17 2 17 -4 0 -6 23 -7 58 -4 31 2 51 1 44 -3 -7 -5 8 -9 38 -10 29 0 57 -5
63 -10 7 -5 34 -9 60 -8 28 2 42 -1 35 -6 -7 -4 -22 -8 -33 -9 -17 -1 -16 -2
5 -9 25 -8 18 -11 -30 -14 -14 -1 -31 -5 -37 -9 -7 -5 -16 -6 -20 -4 -5 3 -14
-1 -21 -9 -11 -12 -8 -14 18 -14 16 0 30 -5 30 -11 0 -5 5 -7 10 -4 16 10 12
-1 -6 -15 -12 -11 -15 -11 -12 1 2 10 -12 14 -58 16 -56 2 -62 0 -74 -22 -7
-14 -18 -25 -24 -26 -6 0 -29 -8 -51 -18 l-40 -18 32 1 c18 1 35 7 38 14 2 6
12 12 22 12 15 0 16 -2 3 -10 -12 -8 -12 -10 5 -10 11 0 26 4 34 9 17 11 43 3
35 -10 -3 -5 2 -9 10 -9 9 0 16 -4 16 -9 0 -6 -9 -8 -20 -6 -11 2 -20 0 -20
-6 0 -5 -8 -9 -18 -9 -11 0 -27 -10 -38 -22 -19 -21 -19 -21 1 -14 11 4 34 10
50 12 17 3 35 7 42 9 6 2 17 -4 25 -13 11 -13 11 -14 -1 -7 -10 6 -12 4 -7 -4
5 -7 15 -10 25 -7 12 5 11 2 -3 -9 -13 -10 -15 -15 -6 -15 7 0 10 -3 6 -7 -4
-4 -15 -8 -23 -8 -9 0 -18 -6 -21 -14 -3 -8 0 -11 7 -7 6 4 11 2 11 -4 0 -7 6
-5 15 4 8 8 24 18 35 21 11 4 18 10 15 14 -2 5 7 6 20 3 14 -2 23 -8 20 -12
-3 -5 9 -19 27 -32 33 -23 68 -32 68 -17 0 5 6 6 13 3 7 -2 29 2 48 9 18 8 40
12 48 9 9 -3 11 0 6 8 -5 9 -4 11 4 6 6 -4 9 -12 6 -17 -4 -5 2 -9 12 -10 14
0 14 -2 -4 -9 -13 -5 -23 -14 -23 -20 0 -7 6 -7 21 0 11 7 28 8 37 4 9 -4 22
-6 27 -4 6 2 48 4 95 4 47 1 91 5 97 9 7 5 20 4 28 -1 13 -7 12 -10 -10 -22
-14 -7 -25 -17 -25 -22 0 -13 16 -9 30 7 17 20 31 19 24 -2 -5 -15 -4 -15 4
-3 6 8 8 18 6 22 -3 4 6 8 20 8 27 0 35 15 13 23 -6 2 -9 7 -6 11 4 4 13 0 22
-8 8 -8 18 -12 21 -9 12 13 41 12 56 -1 24 -20 44 -31 37 -19 -4 6 4 13 18 15
14 3 26 0 29 -8 3 -8 11 -14 18 -14 9 0 8 3 -2 10 -12 8 -12 10 5 10 15 0 16
3 7 9 -25 16 70 34 114 22 21 -6 42 -11 46 -11 4 0 8 272 8 604 l0 604 -47 -4
c-35 -3 -43 -2 -28 5 17 8 14 10 -16 10 -19 1 -60 -3 -90 -8 -78 -14 -249 -21
-249 -11 0 5 6 11 12 14 7 3 0 3 -17 -1 -16 -3 -36 -11 -44 -17 -12 -9 -13 -8
-6 3 7 12 -2 13 -51 7 -183 -22 -404 -36 -404 -24 0 4 -8 5 -17 1 -15 -5 -14
-3 2 11 l20 17 -20 -5 c-11 -3 -63 -8 -115 -11 -52 -3 -131 -10 -175 -16 -44
-6 -99 -8 -122 -4 -57 8 -198 -5 -163 -16 14 -4 1 -5 -29 -2 -39 4 -52 3 -47
-6 5 -7 -2 -11 -21 -12 -27 0 -28 0 -5 -10 15 -6 88 -5 195 1 231 14 247 17
85 17 -76 0 -140 2 -144 5 -3 3 119 5 272 4 l277 -1 2 -23 c2 -30 14 -40 26
-22 9 13 10 13 6 0 -3 -11 -17 -15 -49 -15 -41 0 -45 -2 -37 -17 15 -27 19
-280 5 -297 -8 -11 -8 -15 2 -18 19 -7 14 -23 -8 -23 -33 0 -23 -17 14 -24 42
-8 55 -33 23 -46 -21 -8 -21 -9 6 -9 16 -1 38 -6 49 -12 16 -9 35 -8 75 1 29
7 53 15 53 17 0 3 -10 13 -22 24 l-23 18 25 1 c32 0 56 15 41 24 -19 12 -12
26 14 26 26 0 34 -15 13 -23 -7 -3 -1 -6 14 -6 23 -1 27 3 26 22 -2 20 -8 24
-37 25 -38 2 -48 8 -53 36 -3 20 0 21 100 42 13 2 20 9 17 14 -3 5 4 14 16 21
16 8 18 13 9 19 -22 13 21 29 79 28 40 0 50 -3 42 -12 -13 -15 -4 -26 21 -26
11 0 18 7 18 19 0 12 11 21 33 27 22 7 33 17 35 32 2 13 11 22 20 22 14 0 14
2 3 9 -11 7 -9 10 7 15 20 7 32 33 32 71 0 19 -6 20 -140 18 -97 -1 -139 1
-134 9 4 6 -1 8 -15 3 -11 -3 -29 -2 -38 4 -15 9 -12 10 17 11 23 0 30 3 22 9
-11 7 -10 10 3 15 23 9 25 8 25 -9 0 -8 8 -15 18 -14 10 0 12 3 5 6 -46 18 18
25 377 39 113 4 123 3 105 -10 -20 -16 -20 -16 3 -22 30 -9 28 -27 -3 -22 -29
6 -32 3 -40 -40 -4 -23 -1 -34 12 -41 16 -9 16 -10 -4 -11 -13 0 -23 -6 -23
-12 -5 -142 -5 -208 1 -228 4 -14 8 -18 8 -10 1 11 5 10 13 -5 7 -11 13 -24
13 -30 2 -22 18 -45 30 -45 21 0 28 -19 15 -35 -10 -12 -9 -15 8 -15 12 0 24
-5 28 -11 4 -8 -1 -9 -17 -5 -21 6 -22 6 -5 -5 14 -9 15 -13 5 -19 -10 -7 -10
-12 -1 -23 10 -12 8 -16 -9 -20 -12 -3 -18 -10 -14 -17 12 -19 -37 -60 -75
-61 -29 0 -31 -2 -15 -9 16 -7 14 -9 -15 -9 -26 -1 -31 -4 -20 -11 12 -7 8
-10 -15 -10 -16 0 -154 -6 -305 -14 -558 -30 -793 -37 -801 -25 -5 8 -8 8 -11
-1 -3 -9 -78 -16 -283 -26 -154 -7 -296 -16 -315 -19 -19 -3 -71 -5 -116 -5
-44 1 -174 -4 -289 -10 -176 -9 -211 -14 -221 -28 -7 -9 -16 -13 -21 -9 -4 5
3 16 16 26 16 12 22 25 20 43 -3 19 5 34 34 59 40 36 47 62 20 79 -16 10 -16
11 2 5 11 -4 26 -9 33 -12 6 -3 12 2 12 11 0 9 4 16 10 16 5 0 17 12 26 26 15
22 15 27 3 36 -11 8 -11 9 3 5 16 -6 88 47 88 64 0 15 -161 -22 -335 -78 -136
-43 -259 -46 -333 -7 -15 8 -35 14 -45 14 -9 0 -25 4 -35 10 -35 20 -189 53
-239 51 l-51 -2 -6 38 c-3 21 -8 65 -11 98 -10 101 -25 238 -31 273 -4 27 -2
32 15 32 11 0 23 5 27 11 4 7 23 9 51 5 36 -5 42 -3 31 7 -8 8 -37 13 -73 12
l-60 0 0 43 c0 23 -3 42 -7 42 -5 0 -8 11 -8 24 0 19 6 26 28 29 26 4 26 4 -4
6 l-32 1 -6 93 c-4 50 -9 113 -12 140 l-6 47 -269 0 -269 0 0 -810z m2917 404
c-3 -3 -12 -4 -19 -1 -8 3 -5 6 6 6 11 1 17 -2 13 -5z m413 -4 c0 -6 -35 -9
-87 -8 l-88 2 80 6 c44 3 83 7 88 8 4 1 7 -2 7 -8z m-80 -40 c0 -5 -7 -10 -16
-10 -8 0 -12 5 -9 10 3 6 10 10 16 10 5 0 9 -4 9 -10z m-100 -10 c0 -5 -4 -10
-10 -10 -5 0 -10 5 -10 10 0 6 5 10 10 10 6 0 10 -4 10 -10z m-2803 -296 c-3
-3 -12 -4 -19 -1 -8 3 -5 6 6 6 11 1 17 -2 13 -5z m64 -147 c-6 -6 -20 -5 -38
1 -28 9 -27 9 10 9 22 -1 33 -5 28 -10z m3556 7 c-3 -3 -12 -4 -19 -1 -8 3 -5
6 6 6 11 1 17 -2 13 -5z m-2397 -75 c0 -14 -17 -10 -23 5 -4 10 -1 13 9 9 7
-3 14 -9 14 -14z m-133 -165 c-3 -3 -12 -4 -19 -1 -8 3 -5 6 6 6 11 1 17 -2
13 -5z m-2 -24 c3 -5 1 -10 -4 -10 -6 0 -11 5 -11 10 0 6 2 10 4 10 3 0 8 -4
11 -10z m5 -37 c0 -11 -3 -14 -8 -7 -4 6 -14 14 -22 17 -10 4 -8 6 8 6 15 1
22 -5 22 -16z m624 -35 c7 -37 6 -38 -29 -41 -23 -2 -29 3 -35 25 -9 31 -2 42
15 28 9 -8 14 -6 19 5 9 25 23 17 30 -17z m-124 -18 c0 -27 -3 -30 -30 -30
-28 0 -30 3 -28 30 2 26 6 30 30 30 24 0 28 -4 28 -30z m-386 12 c8 -14 -23
-45 -39 -38 -13 4 -14 10 -5 26 11 20 35 27 44 12z m124 -16 c2 -10 -1 -23 -7
-29 -14 -14 -41 9 -41 35 0 26 43 21 48 -6z m132 -1 c0 -20 -5 -25 -24 -25
-17 0 -25 7 -28 25 -5 22 -2 25 23 25 24 0 29 -4 29 -25z m1385 -26 c-10 -15
-25 -10 -19 6 4 8 10 12 15 9 5 -3 7 -10 4 -15z m-35 7 c0 -2 -9 -6 -20 -9
-11 -3 -18 -1 -14 4 5 9 34 13 34 5z m-1517 -33 c-7 -2 -19 -2 -25 0 -7 3 -2
5 12 5 14 0 19 -2 13 -5z m-228 -61 c-6 -6 -55 38 -55 50 0 4 14 -4 30 -19 17
-14 28 -29 25 -31z m1505 -9 c0 -3 -7 -3 -15 0 -8 4 -17 2 -20 -3 -4 -6 -11
-10 -18 -10 -6 0 -2 6 8 14 17 12 45 12 45 -1z m-2535 -124 c3 -3 -1 -12 -10
-19 -10 -8 -15 -9 -15 -1 0 6 -9 11 -20 11 -14 0 -18 -5 -14 -17 5 -14 4 -15
-4 -4 -16 22 -3 39 28 37 16 -1 31 -4 35 -7z m3055 -34 c-7 -8 -20 -14 -29
-14 -13 1 -13 2 2 6 9 2 17 9 17 14 0 5 5 9 11 9 8 0 8 -5 -1 -15z m-83 -20
c0 -8 -4 -15 -9 -15 -4 0 -8 7 -8 15 0 8 4 15 8 15 5 0 9 -7 9 -15z m40 -11
c-3 -3 -12 -4 -19 -1 -8 3 -5 6 6 6 11 1 17 -2 13 -5z m196 -8 c4 -10 1 -13
-8 -9 -8 3 -12 9 -9 14 7 12 11 11 17 -5z m-1663 -21 c-14 -17 -45 -21 -35 -5
4 6 10 8 15 5 5 -3 11 -1 15 5 3 5 9 10 12 10 3 0 0 -7 -7 -15z m-830 -15 c0
-5 -4 -10 -10 -10 -5 0 -10 5 -10 10 0 6 5 10 10 10 6 0 10 -4 10 -10z m-970
-60 c0 -5 -4 -10 -10 -10 -5 0 -10 5 -10 10 0 6 5 10 10 10 6 0 10 -4 10 -10z
m167 -26 c-3 -3 -12 -4 -19 -1 -8 3 -5 6 6 6 11 1 17 -2 13 -5z m-112 -34 c3
-5 1 -10 -4 -10 -6 0 -11 5 -11 10 0 6 2 10 4 10 3 0 8 -4 11 -10z m-25 -4 c0
-2 -7 -6 -15 -10 -8 -3 -15 -1 -15 4 0 6 7 10 15 10 8 0 15 -2 15 -4z m-40
-16 c0 -5 -2 -10 -4 -10 -3 0 -8 5 -11 10 -3 6 -1 10 4 10 6 0 11 -4 11 -10z
m141 -47 c13 -17 13 -17 -6 -3 -11 8 -22 16 -24 17 -2 2 0 3 6 3 6 0 17 -8 24
-17z m-26 -7 c18 -13 18 -14 -8 -9 -15 3 -27 9 -27 14 0 13 13 11 35 -5z
m-157 -54 c3 -11 0 -12 -18 -2 -12 6 -24 9 -27 7 -3 -3 9 -13 26 -22 38 -19
41 -29 4 -13 -38 16 -46 24 -38 38 9 15 47 9 53 -8z m240 6 c-4 -18 -78 -39
-108 -32 -24 7 -24 7 10 16 19 5 43 10 52 12 10 1 21 5 24 9 12 11 24 8 22 -5z
m-184 -63 c-15 -14 -35 -25 -45 -25 -10 0 -21 -4 -24 -10 -8 -13 -45 -13 -45
0 0 15 35 29 61 24 13 -2 18 -1 10 2 -10 5 -6 10 15 20 46 20 57 16 28 -11z
m247 -12 c13 -15 12 -15 -8 -5 -31 17 -41 14 -18 -5 18 -14 18 -15 2 -9 -10 3
-23 6 -29 6 -6 0 -6 6 2 15 16 20 34 19 51 -2z m188 -24 c-17 -11 -39 -12 -39
-1 0 4 12 8 27 9 19 1 22 -1 12 -8z m-172 -15 c-3 -3 -12 -4 -19 -1 -8 3 -5 6
6 6 11 1 17 -2 13 -5z m-212 -14 c3 -6 -1 -7 -9 -4 -18 7 -21 14 -7 14 6 0 13
-4 16 -10z m250 0 c-14 -6 -15 -9 -5 -10 8 -1 -7 -10 -34 -21 -48 -19 -98 -19
-67 1 8 4 21 6 29 2 11 -4 13 -1 7 8 -6 10 -3 12 13 8 13 -4 23 0 26 8 3 8 16
14 28 13 22 0 22 -1 3 -9z m-266 -14 l24 -14 -22 -7 c-23 -7 -55 11 -45 26 7
12 14 11 43 -5z m81 -57 c0 -11 -61 -30 -73 -22 -6 3 -7 1 -3 -5 5 -8 -1 -12
-16 -12 l-23 1 24 20 c15 12 31 17 44 13 12 -4 17 -2 13 4 -4 6 2 10 14 9 11
-1 20 -4 20 -8z m235 1 c-3 -5 -1 -10 4 -10 6 0 11 -5 11 -10 0 -7 -7 -7 -20
0 -11 6 -25 8 -30 5 -6 -3 -10 -4 -10 0 0 3 10 10 23 15 29 12 29 12 22 0z
m270 -10 c-3 -5 -12 -10 -18 -10 -7 0 -6 4 3 10 19 12 23 12 15 0z m-80 -30
c3 -5 1 -10 -4 -10 -6 0 -11 5 -11 10 0 6 2 10 4 10 3 0 8 -4 11 -10z m-359
-34 c10 -11 11 -15 1 -19 -9 -3 -9 -8 3 -23 10 -14 7 -13 -11 4 -26 23 -45 30
-34 12 3 -5 1 -10 -4 -10 -6 0 -11 2 -11 4 0 2 -3 12 -7 21 -5 14 -2 16 15 10
13 -4 22 -2 22 4 0 15 9 14 26 -3z m248 3 c-7 -12 -89 -49 -110 -49 -8 0 -11
6 -8 15 3 8 9 14 12 13 4 -1 20 4 35 10 16 7 32 10 37 7 5 -3 11 -1 15 5 3 5
11 10 16 10 6 0 7 -5 3 -11z m-184 -68 c0 -7 -100 -51 -116 -51 -2 0 -4 6 -4
13 0 15 56 38 76 30 8 -3 14 0 14 6 0 6 7 11 15 11 8 0 15 -4 15 -9z m-280
-16 c9 -10 9 -15 1 -15 -6 0 -11 4 -11 9 0 5 -8 12 -17 14 -15 4 -15 5 -2 6 9
0 22 -6 29 -14z m90 -50 c-14 -17 -95 -55 -116 -55 -8 0 -14 4 -14 10 0 14 67
40 85 34 8 -4 15 -1 15 4 0 6 8 13 18 15 9 3 19 5 21 6 2 0 -2 -6 -9 -14z
m505 -5 c-9 -14 -97 -51 -109 -46 -6 2 -2 5 9 5 17 1 17 3 5 11 -13 8 -12 10
5 11 11 1 23 1 28 0 4 0 7 3 7 8 0 8 12 13 53 20 5 0 5 -3 2 -9z m-258 -17 c2
-6 -6 -17 -18 -23 -17 -10 -24 -9 -38 4 -14 15 -14 18 -1 26 19 13 52 9 57 -7z
m48 -31 c-11 -2 -25 -8 -32 -14 -7 -6 -14 -4 -19 4 -4 7 -4 10 1 6 4 -4 17 -1
28 7 11 8 25 11 31 7 7 -4 3 -8 -9 -10z m20 -27 c-16 -14 -34 -25 -38 -25 -5
0 -25 -7 -44 -16 -23 -11 -37 -14 -44 -7 -12 12 66 47 82 38 5 -4 9 -1 9 4 0
6 9 11 19 11 11 0 23 5 26 10 3 6 9 10 13 10 4 -1 -6 -12 -23 -25z m-106 -6
c-16 -10 -23 -4 -14 10 3 6 11 8 17 5 6 -4 5 -9 -3 -15z m-189 -18 c0 -5 -9
-11 -19 -14 -14 -3 -18 -1 -14 9 6 15 33 19 33 5z m732 -56 c3 3 11 -2 19 -12
12 -15 12 -16 -3 -10 -10 3 -18 2 -18 -2 0 -15 -33 -22 -44 -11 -8 8 -6 9 8 4
15 -6 17 -4 11 6 -6 9 -4 11 5 5 8 -5 11 -3 8 6 -3 8 -11 13 -17 11 -7 -1 -10
2 -6 8 5 8 11 8 19 1 7 -6 15 -9 18 -6z m-649 -1 c10 -11 -92 -54 -109 -47
-13 5 -9 10 17 24 41 22 52 23 44 7 -3 -7 0 -5 7 5 13 17 30 22 41 11z m741
-19 c-4 -8 -8 -15 -10 -15 -2 0 -4 7 -4 15 0 8 4 15 10 15 5 0 7 -7 4 -15z
m-32 -2 c-6 -2 -10 -9 -6 -14 3 -5 -2 -9 -10 -9 -9 0 -16 -4 -16 -10 0 -5 -7
-10 -15 -10 -8 0 -15 4 -15 9 0 10 48 39 65 39 6 0 4 -2 -3 -5z m-97 -70 c-15
-8 -29 -12 -32 -10 -2 3 5 8 16 12 12 3 19 11 16 16 -3 5 2 6 11 2 14 -5 12
-8 -11 -20z m-478 -15 c-3 -7 -5 -2 -5 12 0 14 2 19 5 13 2 -7 2 -19 0 -25z
m340 0 c-3 -8 -6 -5 -6 6 -1 11 2 17 5 13 3 -3 4 -12 1 -19z m-387 -12 c0 -3
-4 -8 -10 -11 -5 -3 -10 -1 -10 4 0 6 5 11 10 11 6 0 10 -2 10 -4z m285 -16
c-3 -5 1 -10 10 -10 9 0 13 5 10 10 -3 6 -1 10 5 10 25 0 2 -25 -23 -26 -22
-1 -25 2 -16 12 13 16 23 19 14 4z m290 -21 c11 -17 -1 -21 -15 -4 -8 9 -8 15
-2 15 6 0 14 -5 17 -11z m33 -14 c-3 -3 -9 2 -12 12 -6 14 -5 15 5 6 7 -7 10
-15 7 -18z m-398 11 c0 -9 -30 -14 -35 -6 -4 6 3 10 14 10 12 0 21 -2 21 -4z
m-32 -28 c9 -9 12 -9 12 0 0 7 6 12 13 12 6 -1 1 -10 -12 -20 -23 -20 -61 -27
-61 -12 0 9 21 32 30 32 3 0 11 -5 18 -12z m398 -15 c-7 -7 -26 7 -26 19 0 6
6 6 15 -2 9 -7 13 -15 11 -17z m-816 -13 c0 -5 -4 -10 -10 -10 -5 0 -10 5 -10
10 0 6 5 10 10 10 6 0 10 -4 10 -10z m260 -9 c0 -6 -4 -12 -8 -15 -5 -3 -9 1
-9 9 0 8 4 15 9 15 4 0 8 -4 8 -9z m-40 -21 c0 -5 -7 -6 -17 -3 -11 4 -14 3
-9 -5 9 -15 -37 -37 -58 -29 -21 8 -20 23 0 31 11 4 15 2 11 -7 -3 -8 1 -14 8
-14 8 0 11 7 7 15 -3 9 -1 13 5 9 6 -4 16 0 23 8 12 15 30 12 30 -5z m465 10
c-3 -5 -12 -10 -18 -10 -7 0 -6 4 3 10 19 12 23 12 15 0z m-419 -30 c0 -12 -4
-16 -9 -11 -5 5 -6 14 -3 20 10 15 12 14 12 -9z m39 0 c0 -7 -7 -15 -15 -17
-13 -4 -13 -3 0 6 13 10 13 12 0 22 -13 9 -13 10 0 6 8 -2 15 -10 15 -17z
m-65 -4 c0 -2 -9 -6 -20 -9 -11 -3 -18 -1 -14 4 5 9 34 13 34 5z m10 -26 c0
-5 -5 -10 -11 -10 -5 0 -7 5 -4 10 3 6 8 10 11 10 2 0 4 -4 4 -10z m-170 -4
c0 -11 -19 -15 -25 -6 -3 5 1 10 9 10 9 0 16 -2 16 -4z m123 -3 c9 -8 -12 -33
-27 -33 -6 0 -2 6 9 12 19 12 19 12 -5 19 -21 6 -22 7 -4 8 11 1 24 -2 27 -6z
m-79 -32 c4 -5 -3 -7 -14 -4 -23 6 -26 13 -6 13 8 0 17 -4 20 -9z m262 -3 c-1
-7 -5 -19 -9 -25 -6 -9 -3 -11 7 -7 9 3 16 14 16 23 0 13 2 13 9 2 15 -24 2
-48 -25 -43 -23 4 -35 32 -14 32 6 0 9 3 9 8 -2 11 1 22 5 22 2 0 3 -6 2 -12z
m-66 -43 c0 -8 -2 -15 -4 -15 -2 0 -6 7 -10 15 -3 8 -1 15 4 15 6 0 10 -7 10
-15z m-34 -4 c-4 -5 0 -12 6 -14 8 -3 6 -6 -4 -6 -18 -1 -24 10 -11 22 9 10
15 8 9 -2z m-36 -30 c-6 -12 -17 -21 -25 -21 -22 0 -18 21 5 27 11 3 20 10 20
16 0 6 3 8 6 5 3 -4 1 -16 -6 -27z m420 -1 c-13 -11 -25 -20 -28 -20 -3 0 3 9
13 20 10 11 23 20 28 20 6 0 0 -9 -13 -20z m-330 -10 c0 -5 -7 -7 -15 -4 -8 4
-12 10 -9 15 6 11 24 2 24 -11z m1517 4 c-3 -3 -12 -4 -19 -1 -8 3 -5 6 6 6
11 1 17 -2 13 -5z m-1557 -8 c0 -2 -7 -6 -15 -10 -8 -3 -15 -1 -15 4 0 6 7 10
15 10 8 0 15 -2 15 -4z m1607 -2 c-3 -3 -12 -4 -19 -1 -8 3 -5 6 6 6 11 1 17
-2 13 -5z m-1977 -13 c0 -6 -4 -13 -10 -16 -5 -3 -10 1 -10 9 0 9 5 16 10 16
6 0 10 -4 10 -9z m207 -6 c0 -8 -4 -15 -9 -15 -10 0 -11 14 -1 23 9 10 10 9
10 -8z m1883 11 c0 -11 -19 -15 -25 -6 -3 5 1 10 9 10 9 0 16 -2 16 -4z
m-1800 -18 c0 -10 2 -10 8 -1 5 8 13 9 22 3 9 -6 10 -10 3 -10 -6 0 -18 -3
-26 -6 -8 -3 -17 2 -20 10 -4 9 -2 16 3 16 6 0 10 -6 10 -12z m2295 -448 c17
-6 14 -9 -18 -15 -21 -4 -41 -5 -44 -1 -4 3 7 7 23 8 21 1 17 3 -16 8 l-45 7
40 1 c22 0 49 -3 60 -8z m-85 -70 c0 -5 -2 -10 -4 -10 -3 0 -8 5 -11 10 -3 6
-1 10 4 10 6 0 11 -4 11 -10z m-1630 -24 c0 -2 -8 -10 -17 -17 -16 -13 -17
-12 -4 4 13 16 21 21 21 13z m1580 -40 c0 -11 -19 -15 -25 -6 -3 5 1 10 9 10
9 0 16 -2 16 -4z m-1805 -86 c-3 -6 -21 -17 -38 -26 -36 -19 -31 -9 10 17 34
21 36 22 28 9z m-160 -90 c-3 -5 -16 -15 -28 -21 -19 -9 -19 -8 3 10 28 23 34
26 25 11z m365 -5 c-7 -8 -17 -15 -23 -15 -6 0 -2 7 9 15 25 19 30 19 14 0z
m-441 -39 c-10 -9 -69 -36 -69 -32 0 7 52 35 64 36 5 0 7 -2 5 -4z m-89 -56
c-8 -5 -19 -10 -25 -10 -5 0 -3 5 5 10 8 5 20 10 25 10 6 0 3 -5 -5 -10z m377
4 c-3 -3 -12 -4 -19 -1 -8 3 -5 6 6 6 11 1 17 -2 13 -5z m-437 -29 c0 -2 -13
-11 -30 -20 -38 -19 -40 -11 -2 9 31 17 32 18 32 11z m-160 -90 c0 -2 -10 -9
-22 -15 -22 -11 -22 -10 -4 4 21 17 26 19 26 11z m-90 -49 c0 -2 -7 -7 -16
-10 -8 -3 -12 -2 -9 4 6 10 25 14 25 6z"/>
<path d="M2013 2757 c4 -14 26 -16 30 -3 1 5 -6 10 -16 12 -10 1 -16 -3 -14
-9z"/>
<path d="M147 1999 c7 -7 15 -10 18 -7 3 3 -2 9 -12 12 -14 6 -15 5 -6 -5z"/>
<path d="M391 1713 c0 -10 3 -13 5 -6 3 7 12 9 21 6 11 -4 14 -2 9 5 -11 18
-36 14 -35 -5z"/>
<path d="M200 1550 c-8 -5 -10 -10 -5 -10 6 0 17 5 25 10 8 5 11 10 5 10 -5 0
-17 -5 -25 -10z"/>
<path d="M528 1383 c7 -3 16 -2 19 1 4 3 -2 6 -13 5 -11 0 -14 -3 -6 -6z"/>
<path d="M3049 3978 c-7 -13 -19 -28 -27 -34 -12 -9 -12 -13 -2 -19 7 -4 16
-2 21 6 5 8 9 10 10 4 0 -5 2 -18 4 -27 2 -10 -1 -18 -6 -18 -5 0 -9 5 -9 10
0 22 -17 8 -35 -27 -14 -28 -20 -33 -22 -20 -7 29 -43 20 -58 -15 -7 -18 -11
-36 -8 -41 2 -4 1 -7 -4 -6 -4 1 -12 1 -16 0 -5 0 -97 -4 -205 -7 -108 -3
-212 -9 -231 -14 -19 -5 -45 -7 -58 -4 -18 5 -22 3 -17 -10 4 -11 0 -16 -14
-16 -11 0 -28 -3 -38 -7 -12 -4 -15 -3 -10 6 6 9 -10 11 -69 8 -42 -2 -87 -2
-100 0 -21 5 -23 9 -18 41 6 33 5 35 -18 29 -13 -4 -27 -7 -30 -7 -4 0 -9 -13
-12 -29 -5 -24 -10 -28 -29 -24 -18 4 -20 3 -8 -6 13 -9 12 -11 -6 -11 -11 0
-24 -3 -28 -7 -3 -4 -92 -6 -196 -4 -217 3 -421 -9 -355 -20 22 -4 -54 -6
-170 -4 -149 2 -185 1 -125 -5 47 -4 127 -8 179 -9 52 -1 92 -3 90 -6 -3 -2
-36 -7 -75 -11 -38 -3 -73 -10 -79 -16 -7 -7 5 -8 40 -3 28 4 201 9 387 10
185 2 341 5 346 9 12 7 42 -3 42 -13 0 -9 -158 -39 -230 -45 -25 -2 17 -3 93
-2 117 1 137 -1 135 -14 -3 -12 -26 -16 -111 -21 -125 -7 -154 -19 -47 -19
100 0 83 -9 -31 -16 -52 -4 -96 -9 -99 -12 -3 -2 49 -2 114 2 66 3 116 3 112
-1 -8 -8 -13 -9 -41 -12 -9 -1 -15 -11 -15 -28 0 -25 0 -26 18 -7 20 23 77 44
116 44 24 0 27 3 23 21 -7 28 9 11 17 -18 5 -16 2 -23 -11 -26 -15 -4 -14 -5
4 -6 14 -1 24 -11 31 -30 8 -23 15 -28 31 -24 26 7 28 23 2 23 -13 0 -20 9
-23 30 -3 21 0 30 9 30 8 0 12 3 10 8 -3 4 24 7 61 7 36 0 67 5 69 10 2 7 -24
10 -74 9 l-78 -2 85 13 85 13 -92 -1 c-87 -2 -103 2 -103 28 0 2 23 6 50 10
67 9 64 25 -5 25 -42 0 -55 4 -55 15 0 11 13 14 53 14 111 0 151 3 138 10 -20
13 13 21 77 19 l57 -1 -50 -7 c-44 -6 -46 -7 -15 -9 61 -4 360 -2 520 3 159 5
163 -5 10 -24 l-65 -8 78 1 c43 1 81 -3 85 -8 4 -6 25 -11 47 -12 22 -1 45 -2
50 -3 6 0 36 3 68 6 41 5 57 3 57 -5 0 -8 6 -7 16 3 8 9 23 16 32 16 16 1 16
2 0 14 -15 11 -5 12 67 9 62 -4 85 -2 85 7 0 7 -7 10 -15 7 -8 -4 -17 -2 -19
2 -6 8 -50 6 -94 -4 -13 -3 -21 -2 -18 3 3 5 -8 9 -24 9 -17 0 -30 -4 -30 -9
0 -10 -39 -1 -53 12 -4 4 58 8 139 8 81 1 152 6 159 12 6 5 30 11 53 12 23 2
42 6 42 10 0 4 35 9 78 11 42 2 10 2 -73 1 -82 -2 -192 -8 -242 -13 -55 -7
-117 -7 -153 -2 -34 4 -63 4 -66 -1 -3 -4 14 -8 37 -8 74 0 37 -7 -81 -16
-200 -14 -327 -8 -394 20 -30 13 -29 13 34 14 101 2 210 14 205 22 -3 5 3 7
12 5 10 -2 18 -4 18 -5 0 -7 106 -7 171 1 45 5 134 11 199 14 64 3 121 8 126
10 4 3 10 1 13 -4 9 -14 -33 -21 -141 -21 -66 0 -104 -4 -109 -12 -5 -8 5 -9
37 -5 25 3 134 9 243 13 111 4 191 11 184 15 -12 8 -4 9 60 9 4 0 8 -4 8 -10
1 -5 2 -13 3 -18 0 -4 22 -6 49 -5 l47 2 -55 -14 -55 -13 63 3 c35 2 73 0 85
-5 20 -8 20 -9 2 -9 -19 -1 -19 -1 2 -16 27 -19 103 -31 103 -17 0 6 -19 13
-42 15 l-43 4 43 1 c34 2 42 6 42 21 0 14 -10 21 -37 27 l-38 8 40 7 c22 3
-14 4 -81 1 -107 -4 -121 -3 -121 12 0 13 10 16 48 16 26 0 51 -5 54 -10 4 -6
16 -8 28 -4 12 4 41 6 65 5 33 -1 42 2 42 15 0 12 -7 15 -30 12 -27 -4 -30 -2
-24 16 4 12 17 35 30 52 32 41 34 104 4 104 -11 0 -23 -7 -26 -15 -4 -8 -11
-15 -16 -15 -6 0 -5 6 2 15 11 13 8 15 -14 15 -14 0 -25 -5 -23 -11 1 -6 -4
-14 -11 -16 -8 -3 -10 2 -6 14 5 16 4 16 -11 -2 -15 -19 -15 -20 5 -23 27 -4
20 -26 -9 -30 -21 -3 -22 -4 -4 -17 23 -17 14 -26 -28 -27 -33 -1 -86 -30
-102 -55 -4 -7 -21 -13 -37 -13 -26 0 -29 3 -36 53 -4 28 -6 69 -5 90 l3 37
-301 0 -300 0 -12 -22z m911 -22 c0 -3 -4 -8 -10 -11 -5 -3 -10 -1 -10 4 0 6
5 11 10 11 6 0 10 -2 10 -4z m-365 -156 c4 -6 -15 -10 -47 -9 -30 0 -45 3 -36
7 28 11 77 12 83 2z m-1485 -20 c0 -5 -5 -10 -11 -10 -5 0 -7 5 -4 10 3 6 8
10 11 10 2 0 4 -4 4 -10z m1787 -16 c-3 -3 -12 -4 -19 -1 -8 3 -5 6 6 6 11 1
17 -2 13 -5z m-1411 -32 c-9 -2 -25 -1 -34 3 -15 6 -15 8 3 15 12 4 26 3 34
-4 12 -9 11 -12 -3 -14z m-813 -19 c-18 -2 -48 -2 -65 0 -18 2 -4 4 32 4 36 0
50 -2 33 -4z m553 -19 c-18 -18 -32 -18 -39 0 -4 10 2 16 16 18 31 6 39 -1 23
-18z m329 16 c-11 -5 -36 -9 -55 -9 -28 0 -31 2 -15 9 11 5 36 9 55 9 28 0 31
-2 15 -9z m172 4 c-3 -3 -12 -4 -19 -1 -8 3 -5 6 6 6 11 1 17 -2 13 -5z m411
-11 c-10 -2 -28 -2 -40 0 -13 2 -5 4 17 4 22 1 32 -1 23 -4z m-1543 -13 c15
-6 9 -9 -25 -9 -34 0 -40 3 -25 9 11 5 22 9 25 9 3 0 14 -4 25 -9z m198 3 c-7
-2 -21 -2 -30 0 -10 3 -4 5 12 5 17 0 24 -2 18 -5z m140 0 c-18 -2 -48 -2 -65
0 -18 2 -4 4 32 4 36 0 50 -2 33 -4z m1131 -23 c-7 -7 -19 -7 -35 -1 -23 9
-22 10 11 10 23 1 31 -2 24 -9z m-999 -110 c-3 -5 -12 -10 -20 -10 -8 0 -17 5
-20 10 -4 6 5 10 20 10 15 0 24 -4 20 -10z"/>
<path d="M3817 3953 c-12 -12 -7 -22 8 -17 8 4 15 10 15 15 0 11 -14 12 -23 2z"/>
<path d="M3823 3793 c9 -2 23 -2 30 0 6 3 -1 5 -18 5 -16 0 -22 -2 -12 -5z"/>
<path d="M2328 3763 c7 -3 16 -2 19 1 4 3 -2 6 -13 5 -11 0 -14 -3 -6 -6z"/>
<path d="M1753 3754 c7 -7 158 -6 166 1 2 3 -35 5 -84 5 -49 0 -86 -3 -82 -6z"/>
<path d="M1953 3753 c15 -2 37 -2 50 0 12 2 0 4 -28 4 -27 0 -38 -2 -22 -4z"/>
<path d="M3018 3755 c-2 -2 -57 -7 -123 -10 -66 -4 -122 -10 -125 -12 -3 -3
47 -3 110 1 63 3 142 6 174 6 33 0 57 2 55 4 -6 5 -87 15 -91 11z"/>
<path d="M758 3723 c6 -2 18 -2 25 0 6 3 1 5 -13 5 -14 0 -19 -2 -12 -5z"/>
<path d="M813 3723 c9 -2 25 -2 35 0 9 3 1 5 -18 5 -19 0 -27 -2 -17 -5z"/>
<path d="M668 3713 c7 -3 16 -2 19 1 4 3 -2 6 -13 5 -11 0 -14 -3 -6 -6z"/>
<path d="M1288 3713 c7 -3 16 -2 19 1 4 3 -2 6 -13 5 -11 0 -14 -3 -6 -6z"/>
<path d="M897 3690 c-139 -11 -114 -20 44 -16 79 3 132 2 116 0 -41 -8 -24
-20 22 -16 41 4 64 27 27 27 -11 1 -43 3 -71 6 -27 4 -89 3 -138 -1z"/>
<path d="M585 3680 c-3 -5 -1 -10 4 -10 6 0 11 5 11 10 0 6 -2 10 -4 10 -3 0
-8 -4 -11 -10z"/>
<path d="M1178 3683 c7 -3 16 -2 19 1 4 3 -2 6 -13 5 -11 0 -14 -3 -6 -6z"/>
<path d="M3978 3673 c7 -3 16 -2 19 1 4 3 -2 6 -13 5 -11 0 -14 -3 -6 -6z"/>
<path d="M2670 3659 c-53 -6 -52 -6 23 -7 76 -2 99 2 55 9 -13 2 -48 1 -78 -2z"/>
<path d="M768 3653 c6 -2 18 -2 25 0 6 3 1 5 -13 5 -14 0 -19 -2 -12 -5z"/>
<path d="M903 3653 c9 -2 25 -2 35 0 9 3 1 5 -18 5 -19 0 -27 -2 -17 -5z"/>
<path d="M968 3653 c7 -3 16 -2 19 1 4 3 -2 6 -13 5 -11 0 -14 -3 -6 -6z"/>
<path d="M2770 3640 c-24 -8 -23 -8 8 -9 17 -1 32 4 32 9 0 11 -5 11 -40 0z"/>
<path d="M2846 3640 c11 -4 36 -5 55 0 31 7 29 8 -21 8 -39 1 -49 -2 -34 -8z"/>
<path d="M2988 3643 c6 -2 18 -2 25 0 6 3 1 5 -13 5 -14 0 -19 -2 -12 -5z"/>
<path d="M2475 3619 c-13 -6 -4 -7 30 -3 28 4 52 8 54 10 9 8 -65 2 -84 -7z"/>
<path d="M2718 3623 c7 -3 16 -2 19 1 4 3 -2 6 -13 5 -11 0 -14 -3 -6 -6z"/>
<path d="M1680 3610 c0 -5 12 -10 26 -10 14 0 23 4 19 10 -3 6 -15 10 -26 10
-10 0 -19 -4 -19 -10z"/>
<path d="M2298 3613 c18 -2 45 -2 60 0 15 2 0 4 -33 4 -33 0 -45 -2 -27 -4z"/>
<path d="M2183 3603 c9 -2 23 -2 30 0 6 3 -1 5 -18 5 -16 0 -22 -2 -12 -5z"/>
<path d="M778 3563 c6 -2 18 -2 25 0 6 3 1 5 -13 5 -14 0 -19 -2 -12 -5z"/>
<path d="M1620 3560 c-42 -11 42 -17 145 -10 50 4 70 7 45 9 -25 1 -72 3 -105
5 -33 1 -71 0 -85 -4z"/>
<path d="M2868 3563 c7 -3 16 -2 19 1 4 3 -2 6 -13 5 -11 0 -14 -3 -6 -6z"/>
<path d="M2703 3553 c15 -2 37 -2 50 0 12 2 0 4 -28 4 -27 0 -38 -2 -22 -4z"/>
<path d="M2558 3543 c23 -2 59 -2 80 0 20 2 1 4 -43 4 -44 0 -61 -2 -37 -4z"/>
<path d="M2330 3530 c-25 -4 5 -5 65 -2 61 2 112 6 114 8 7 7 -131 1 -179 -6z"/>
<path d="M1568 3523 c12 -2 30 -2 40 0 9 3 -1 5 -23 4 -22 0 -30 -2 -17 -4z"/>
<path d="M1668 3523 c17 -2 47 -2 65 0 17 2 3 4 -33 4 -36 0 -50 -2 -32 -4z"/>
<path d="M1173 3503 c15 -2 39 -2 55 0 15 2 2 4 -28 4 -30 0 -43 -2 -27 -4z"/>
<path d="M1645 3500 c-34 -6 -35 -7 -10 -8 17 0 50 3 75 7 40 8 41 8 10 8 -19
0 -53 -3 -75 -7z"/>
<path d="M1818 3503 c7 -3 16 -2 19 1 4 3 -2 6 -13 5 -11 0 -14 -3 -6 -6z"/>
<path d="M921 3496 c2 -2 18 -6 34 -10 22 -5 26 -4 15 4 -14 9 -59 15 -49 6z"/>
<path d="M1068 3493 c6 -2 18 -2 25 0 6 3 1 5 -13 5 -14 0 -19 -2 -12 -5z"/>
<path d="M2174 3403 c-11 -36 -38 -98 -47 -110 -7 -10 -15 -8 -34 7 -14 11
-31 20 -39 20 -7 0 -26 11 -42 25 -17 14 -33 25 -36 25 -3 0 -6 -11 -6 -25 0
-18 5 -25 18 -25 31 0 81 -30 88 -53 11 -33 4 -70 -17 -90 -27 -26 -23 -50 10
-65 20 -9 28 -18 24 -31 -3 -11 2 -21 13 -25 21 -8 36 12 28 38 -4 13 1 25 15
35 24 18 20 51 -5 51 -21 0 -17 43 11 104 14 30 25 63 25 74 0 10 10 23 22 29
l23 10 -23 12 c-19 10 -23 9 -28 -6z m-89 -253 c-3 -5 -10 -10 -16 -10 -5 0
-9 5 -9 10 0 6 7 10 16 10 8 0 12 -4 9 -10z"/>
<path d="M2710 3119 c0 -5 5 -7 10 -4 6 3 10 8 10 11 0 2 -4 4 -10 4 -5 0 -10
-5 -10 -11z"/>
<path d="M2600 3099 c0 -5 5 -7 10 -4 6 3 10 8 10 11 0 2 -4 4 -10 4 -5 0 -10
-5 -10 -11z"/>
<path d="M2338 3043 c7 -3 16 -2 19 1 4 3 -2 6 -13 5 -11 0 -14 -3 -6 -6z"/>
<path d="M923 2985 c-3 -9 -3 -18 -1 -21 3 -3 8 4 11 16 6 23 -1 27 -10 5z"/>
<path d="M665 2703 c11 -2 26 -6 33 -8 7 -3 16 -5 20 -6 18 -3 64 -43 73 -63
8 -18 9 -17 6 9 -9 67 -17 73 -102 73 -27 0 -41 -2 -30 -5z"/>
<path d="M1085 2621 c-3 -6 10 -7 32 -4 50 8 55 13 10 13 -20 0 -38 -4 -42 -9z"/>
<path d="M288 2533 c7 -3 16 -2 19 1 4 3 -2 6 -13 5 -11 0 -14 -3 -6 -6z"/>
<path d="M2926 2495 c-9 -26 -7 -32 5 -12 6 10 9 21 6 23 -2 3 -7 -2 -11 -11z"/>
<path d="M3017 2446 c-15 -23 -15 -24 8 -22 29 1 39 20 21 35 -10 9 -17 6 -29
-13z"/>
<path d="M3239 2422 c-1 -9 -1 -20 0 -24 0 -5 -7 -8 -16 -8 -13 0 -14 3 -5 12
15 15 15 28 1 28 -5 0 -8 -4 -4 -9 3 -5 1 -12 -5 -16 -6 -4 -8 -11 -5 -16 4
-5 1 -9 -4 -9 -6 0 -11 -8 -11 -17 0 -14 2 -15 9 -5 4 7 16 14 25 16 9 1 23
14 31 28 11 23 11 27 -1 32 -8 3 -14 -1 -15 -12z"/>
<path d="M3076 2415 c-3 -9 0 -15 9 -15 16 0 20 16 6 24 -5 3 -11 -1 -15 -9z"/>
<path d="M3490 2390 c-8 -5 -12 -11 -9 -14 3 -3 14 1 25 9 21 16 8 20 -16 5z"/>
<path d="M680 2370 c0 -5 7 -10 16 -10 8 0 12 5 9 10 -3 6 -10 10 -16 10 -5 0
-9 -4 -9 -10z"/>
<path d="M3435 2369 c-4 -6 -4 -13 -1 -16 3 -4 6 -1 6 6 0 7 5 9 10 6 6 -3 10
-1 10 4 0 14 -17 14 -25 0z"/>
<path d="M3501 2354 c0 -11 3 -14 6 -6 3 7 2 16 -1 19 -3 4 -6 -2 -5 -13z"/>
<path d="M3395 2349 c-11 -16 -1 -19 13 -3 7 8 8 14 3 14 -5 0 -13 -5 -16 -11z"/>
<path d="M1472 1790 c-19 -31 -14 -43 10 -20 14 13 18 24 12 30 -6 6 -14 3
-22 -10z"/>
<path d="M2388 1516 c-49 -15 -58 -26 -22 -26 29 0 75 24 64 32 -3 3 -22 0
-42 -6z"/>
<path d="M2065 1360 c-18 -8 -17 -9 8 -9 16 -1 26 3 22 9 -3 6 -7 10 -8 9 -1
0 -11 -4 -22 -9z"/>
<path d="M2110 1340 c0 -13 41 -29 58 -23 6 3 12 0 12 -6 0 -6 -5 -11 -12 -11
-6 0 -9 -3 -6 -6 4 -3 17 0 29 7 l23 12 -24 10 c-14 6 -28 11 -32 11 -3 1 -10
4 -14 9 -11 11 -34 9 -34 -3z"/>
<path d="M2080 1280 c0 -6 7 -10 15 -10 8 0 15 2 15 4 0 2 -7 6 -15 10 -8 3
-15 1 -15 -4z"/>
<path d="M2224 1226 c11 -9 24 -16 30 -16 12 0 7 5 -24 19 -24 11 -24 11 -6
-3z"/>
<path d="M2115 1220 c-3 -5 2 -10 12 -11 10 0 29 -2 43 -5 18 -3 21 -2 10 5
-8 5 -17 8 -21 5 -4 -2 -10 0 -14 6 -8 13 -22 13 -30 0z"/>
<path d="M3775 1050 c-3 -5 -1 -10 4 -10 6 0 11 5 11 10 0 6 -2 10 -4 10 -3 0
-8 -4 -11 -10z"/>
<path d="M3464 1025 c22 -17 40 -20 32 -6 -3 5 -16 11 -28 14 -22 6 -22 5 -4
-8z"/>
<path d="M3830 1020 c-11 -7 -7 -10 18 -10 20 0 31 4 27 10 -8 13 -26 13 -45
0z"/>
<path d="M3801 912 c-13 -25 -14 -43 -1 -22 5 8 10 10 10 4 0 -6 -7 -18 -16
-25 -20 -16 -40 -61 -43 -95 0 -9 -6 -12 -12 -8 -8 5 -10 -1 -6 -18 5 -17 2
-30 -8 -38 -8 -7 -15 -19 -15 -26 0 -8 -4 -14 -10 -14 -5 0 -10 4 -10 9 0 6 5
13 10 16 6 3 10 13 10 21 0 8 -4 13 -9 10 -5 -4 -12 0 -15 6 -4 9 -5 8 -4 -2
1 -8 -1 -22 -5 -30 -3 -8 -8 -22 -11 -30 -3 -11 -6 -9 -11 8 -8 24 -35 31 -35
8 0 -7 -7 -19 -15 -26 -8 -7 -13 -16 -10 -20 2 -4 -7 -12 -20 -18 -14 -7 -25
-17 -25 -23 0 -7 -16 -10 -45 -7 -38 3 -45 0 -54 -19 -13 -28 -37 -30 -44 -3
-7 27 -44 26 -52 -1 -8 -25 2 -39 11 -15 8 20 24 21 24 1 0 -8 -4 -15 -10 -15
-5 0 -10 -7 -10 -15 0 -8 -5 -15 -10 -15 -6 0 -9 3 -8 8 0 4 -2 15 -7 25 -6
15 -10 16 -16 5 -7 -10 -9 -11 -9 0 0 7 -5 10 -10 7 -6 -4 -8 -10 -5 -15 6 -9
-13 -24 -30 -25 -5 0 -9 -14 -8 -30 0 -17 -1 -24 -4 -17 -2 6 -9 12 -15 12 -7
0 -9 -20 -5 -60 4 -34 3 -60 -2 -60 -5 0 -12 8 -14 18 -4 13 -5 12 -6 -5 -1
-14 9 -28 27 -38 36 -22 61 -73 41 -86 -10 -6 -11 -9 -1 -9 6 0 12 -10 12 -22
0 -12 7 -30 17 -40 9 -10 12 -18 7 -18 -5 0 -9 -18 -9 -40 -1 -22 2 -35 6 -29
10 17 31 -1 26 -22 -3 -10 0 -30 6 -44 l12 -25 318 0 318 0 -2 67 c-2 41 -8
73 -16 82 -12 11 -11 15 2 25 13 9 14 17 5 40 -7 20 -7 32 0 41 8 9 8 15 0 20
-6 3 -8 10 -5 15 3 5 0 21 -5 36 -8 19 -8 29 0 34 7 5 8 15 1 33 -7 17 -7 28
0 32 6 4 1 20 -12 41 -14 23 -20 46 -17 68 3 28 1 32 -15 28 -10 -2 -17 -1
-16 4 1 5 -1 17 -6 28 -5 11 -3 21 5 26 9 5 9 13 3 25 -9 15 -11 16 -16 1 -14
-35 -23 -13 -16 37 3 28 5 53 4 55 -7 8 -61 -35 -58 -45 3 -8 -4 -13 -18 -13
-16 0 -20 3 -12 11 7 7 8 24 2 47 -5 22 -4 41 2 48 15 18 23 109 11 129 -9 17
-10 17 -21 -3z m6 -74 c-3 -8 -6 -5 -6 6 -1 11 2 17 5 13 3 -3 4 -12 1 -19z
m-460 -315 c-4 -3 -2 -12 4 -19 10 -12 7 -12 -30 -5 -5 1 20 31 27 31 3 0 2
-3 -1 -7z m-22 -43 c3 -6 -1 -7 -9 -4 -18 7 -21 14 -7 14 6 0 13 -4 16 -10z"/>
<path d="M2145 900 c-3 -5 1 -10 10 -10 9 0 13 5 10 10 -3 6 -8 10 -10 10 -2
0 -7 -4 -10 -10z"/>
<path d="M3928 883 c6 -2 12 -9 12 -14 0 -6 -4 -8 -9 -5 -5 3 -15 -2 -22 -11
-13 -15 -11 -16 11 -10 14 4 28 7 33 7 4 0 7 9 7 20 0 14 -6 20 -22 19 -13 0
-17 -3 -10 -6z"/>
<path d="M2170 870 c-8 -5 -12 -12 -9 -15 4 -3 12 1 19 10 14 17 11 19 -10 5z"/>
<path d="M3706 835 c-3 -9 -6 -22 -5 -28 0 -7 5 -1 10 12 5 13 8 26 5 28 -2 2
-6 -3 -10 -12z"/>
<path d="M3731 833 c0 -6 -4 -20 -7 -30 -5 -14 -4 -15 5 -7 7 7 11 20 8 30 -3
11 -5 14 -6 7z"/>
<path d="M3512 649 c-7 -12 -11 -24 -7 -27 7 -8 25 17 25 36 0 17 -3 15 -18
-9z"/>
<path d="M3556 661 c-4 -7 -5 -15 -2 -18 9 -9 19 4 14 18 -4 11 -6 11 -12 0z"/>
<path d="M2670 630 c0 -12 8 -12 35 0 18 8 17 9 -7 9 -16 1 -28 -3 -28 -9z"/>
<path d="M3152 617 c-22 -17 -28 -27 -21 -34 8 -8 7 -13 -1 -18 -8 -5 -17 -1
-22 9 -12 21 -73 15 -121 -11 -17 -10 -34 -19 -35 -20 -2 -1 -1 -11 3 -22 6
-20 6 -20 27 1 l21 21 17 -23 c12 -16 19 -19 25 -11 4 8 17 10 31 7 26 -7 43
7 106 87 34 43 19 50 -30 14z"/>
<path d="M2605 590 c3 -5 8 -10 11 -10 2 0 4 5 4 10 0 6 -5 10 -11 10 -5 0 -7
-4 -4 -10z"/>
<path d="M3165 552 c-22 -16 -34 -49 -22 -61 17 -17 31 -13 16 5 -12 15 -11
16 9 10 13 -5 22 -3 22 3 0 6 -4 11 -10 11 -5 0 -10 5 -10 11 0 6 7 8 16 5 10
-4 14 -1 12 6 -5 15 -20 20 -33 10z"/>
<path d="M3217 543 c-4 -3 -7 -11 -7 -17 0 -6 5 -5 12 2 6 6 9 14 7 17 -3 3
-9 2 -12 -2z"/>
<path d="M3280 534 c0 -8 5 -12 10 -9 6 4 8 11 5 16 -9 14 -15 11 -15 -7z"/>
<path d="M2890 510 c19 -13 30 -13 30 0 0 6 -10 10 -22 10 -19 0 -20 -2 -8
-10z"/>
</g>
</svg>
